<svg width="41" height="49" viewBox="0 0 41 49" fill="none" xmlns="http://www.w3.org/2000/svg">
<path d="M34.2422 25.7637C34.2188 21.7676 36.0293 18.7559 39.6855 16.5352C37.6406 13.6055 34.5469 11.9941 30.4688 11.6836C26.6074 11.3789 22.3828 13.9336 20.8359 13.9336C19.2012 13.9336 15.4629 11.7891 12.5215 11.7891C6.45117 11.8828 0 16.6289 0 26.2852C0 29.1387 0.521484 32.0859 1.56445 35.1211C2.95898 39.1172 7.98633 48.9082 13.2305 48.75C15.9727 48.6855 17.9121 46.8047 21.4805 46.8047C24.9434 46.8047 26.7363 48.75 29.7949 48.75C35.0859 48.6738 39.6328 39.7734 40.957 35.7656C33.8613 32.4199 34.2422 25.9688 34.2422 25.7637V25.7637ZM33.6211 41.4082C32.7832 42.5742 31.9395 43.4941 31.166 44.0859C30.5508 44.5547 30.0762 44.7539 29.7598 44.7656C29.2324 44.7598 28.7227 44.6309 27.7266 44.25C27.6563 44.2207 27.5801 44.1914 27.4805 44.1562L27.2227 44.0566C26.2031 43.6641 25.5938 43.4531 24.8145 43.248C23.7246 42.9668 22.6406 42.8145 21.4805 42.8145C20.2969 42.8145 19.1836 42.9609 18.0762 43.2363C17.2617 43.4414 16.5762 43.6699 15.5742 44.0449C15.5332 44.0625 15.0996 44.2266 14.9766 44.2734C14.7715 44.3496 14.6133 44.4082 14.4668 44.4609C13.8574 44.6719 13.4707 44.7598 13.125 44.7656C13.084 44.7656 13.0488 44.7598 13.0195 44.7539C12.9551 44.7422 12.873 44.7187 12.7793 44.6777C12.5156 44.5723 12.1992 44.3789 11.8418 44.1035C11.0215 43.4648 10.1191 42.4629 9.19922 41.1797C7.58789 38.918 6.06445 35.918 5.33203 33.8145C4.42969 31.1895 3.98438 28.6758 3.98438 26.2793C3.98438 22.752 5.02734 20.0684 6.82031 18.2461C8.36133 16.6875 10.4355 15.8145 12.5508 15.7676C12.8965 15.7734 13.4004 15.8555 14.0391 16.0313C14.543 16.166 15.0937 16.3477 15.8379 16.6113C16.0605 16.6934 16.8281 16.9688 16.9219 17.0039C17.373 17.168 17.7129 17.2852 18.0469 17.3906C19.1133 17.7305 19.9395 17.918 20.8359 17.918C21.7441 17.918 22.5234 17.7246 23.6309 17.3438C24.0469 17.2031 25.5586 16.6406 25.8281 16.5469C27.3281 16.0137 28.4355 15.7266 29.3906 15.6563C29.6719 15.6328 29.9238 15.6328 30.1641 15.6504C31.4941 15.7559 32.6309 16.0195 33.5977 16.459C31.3945 19.002 30.2578 22.1133 30.2637 25.7402C30.2461 26.6016 30.3164 27.5977 30.5625 28.7754C30.9375 30.5625 31.6523 32.332 32.7832 33.9902C33.6445 35.25 34.7109 36.3867 35.9883 37.377C35.3145 38.7656 34.4883 40.2012 33.6211 41.4082ZM28.084 7.89258C31.0547 4.36523 30.7852 1.1543 30.6973 0C28.0723 0.152344 25.0371 1.78711 23.3086 3.79688C21.4043 5.95313 20.2852 8.61914 20.5254 11.625C23.3613 11.8418 25.9512 10.3828 28.084 7.89258V7.89258Z" fill="white"/>
</svg>
