<svg
  width="32"
  height="30"
  viewBox="0 0 32 30"
  fill="none"
  xmlns="http://www.w3.org/2000/svg"
  >
  <path
    fill-rule="evenodd"
    clip-rule="evenodd"
    d="M16 0C7.16 0 0 6.7125 0 15C0 21.6375 4.58 27.2437 10.94 29.2313C11.74 29.3625 12.04 28.9125 12.04 28.5188C12.04 28.1625 12.02 26.9813 12.02 25.725C8 26.4188 6.96 24.8062 6.64 23.9625C6.46 23.5312 5.68 22.2 5 21.8438C4.44 21.5625 3.64 20.8687 4.98 20.85C6.24 20.8313 7.14 21.9375 7.44 22.3875C8.88 24.6562 11.18 24.0187 12.1 23.625C12.24 22.65 12.66 21.9937 13.12 21.6187C9.56 21.2437 5.84 19.95 5.84 14.2125C5.84 12.5813 6.46 11.2313 7.48 10.1813C7.32 9.80625 6.76 8.26875 7.64 6.20625C7.64 6.20625 8.98 5.8125 12.04 7.74375C13.32 7.40625 14.68 7.2375 16.04 7.2375C17.4 7.2375 18.76 7.40625 20.04 7.74375C23.1 5.79375 24.44 6.20625 24.44 6.20625C25.32 8.26875 24.76 9.80625 24.6 10.1813C25.62 11.2313 26.24 12.5625 26.24 14.2125C26.24 19.9688 22.5 21.2437 18.94 21.6187C19.52 22.0875 20.02 22.9875 20.02 24.3937C20.02 26.4 20 28.0125 20 28.5188C20 28.9125 20.3 29.3813 21.1 29.2313C24.2762 28.2259 27.0362 26.3121 28.9916 23.7592C30.9469 21.2063 31.999 18.1429 32 15C32 6.7125 24.84 0 16 0Z"
    fill="white"
  ></path>
</svg>