<svg width="52" height="52" viewBox="0 0 52 52" fill="none" xmlns="http://www.w3.org/2000/svg">
<g clip-path="url(#clip0_33_90)">
<path d="M42.9358 22.2754L43.0381 28.1076H42.9878L41.2945 22.2754H38.519V29.6221H40.3552L40.2529 23.5868H40.3033L42.1151 29.6221H44.772V22.2754H42.9358ZM7.94787 22.2754L6.56013 29.6984H8.56537L9.58913 22.9449H9.63138L10.6307 29.6984H12.6197L11.2482 22.2754H7.94787ZM19.1701 22.2754L18.2553 27.9369H18.2049L17.2819 22.2754H14.2513L14.1066 29.6984H15.9689L16.0192 23.0213H16.0355L17.2802 29.6984H19.1669L20.4116 23.0213H20.462L20.5124 29.6984H22.3746L22.1975 22.2754H19.1701ZM3.42712 27.5908C3.5035 27.7598 3.4775 28.0133 3.45312 28.1319C3.40275 28.3854 3.224 28.6308 2.73325 28.6308C2.25875 28.6308 1.989 28.3594 1.989 27.9629V27.2431H0V27.8102C0 29.4774 1.31138 29.9682 2.70888 29.9682C4.04625 29.9682 5.16262 29.5034 5.34137 28.2847C5.44375 27.6412 5.36737 27.2187 5.34137 27.0659C4.99362 25.4994 2.15962 25.0607 1.96462 24.1881C1.9384 24.0567 1.9384 23.9214 1.96462 23.7899C2.015 23.5446 2.184 23.2911 2.6325 23.2911C3.081 23.2911 3.32637 23.5624 3.32637 23.9589V24.4074H5.18863V23.8907C5.18863 22.2738 3.7245 22.0284 2.68288 22.0284C1.36175 22.0284 0.271375 22.4688 0.076375 23.6616C0.00916633 23.9924 0.0180571 24.3341 0.102375 24.6609C0.398125 26.1933 3.05662 26.6418 3.42875 27.5892L3.42712 27.5908ZM27.5909 27.5908C27.6673 27.7598 27.6413 27.9889 27.6169 28.1319C27.5665 28.3854 27.3878 28.6308 26.897 28.6308C26.4225 28.6308 26.1527 28.3594 26.1527 27.9629V27.2431H24.1637V27.8102C24.1637 29.4514 25.4507 29.9519 26.8466 29.9519C28.184 29.9519 29.276 29.5034 29.4531 28.2587C29.5555 27.6152 29.4791 27.2171 29.4531 27.0399C29.1574 25.4994 26.3477 25.0347 26.1527 24.1881C26.1265 24.0567 26.1265 23.9214 26.1527 23.7899C26.195 23.5446 26.3721 23.2911 26.8206 23.2911C27.2431 23.2911 27.5145 23.5624 27.5145 23.9589V24.4074H29.3508V23.8907C29.3508 22.2738 27.9126 22.0284 26.871 22.0284C25.5499 22.0284 24.4839 22.4428 24.2889 23.6616C24.2385 23.9833 24.2385 24.2872 24.3051 24.6609C24.6106 26.1933 27.2171 26.6158 27.5893 27.5892L27.5909 27.5908ZM33.8455 28.5821C34.3704 28.5821 34.5134 28.2343 34.5654 28.0409C34.5914 27.9646 34.5914 27.8378 34.5914 27.7614V22.2771H36.478V27.6168C36.478 27.7614 36.478 28.0393 36.452 28.1076C36.3334 29.5034 35.2333 29.9519 33.8699 29.9519C32.5065 29.9519 31.4161 29.5034 31.2877 28.1076C31.2877 28.0393 31.2618 27.7598 31.2618 27.6168V22.2771H33.1484V27.7614C33.1484 27.8638 33.1484 27.9646 33.1744 28.0409C33.1744 28.2359 33.3271 28.5821 33.8423 28.5821H33.8455ZM49.3431 28.5057C49.894 28.5057 50.063 28.1579 50.1134 27.9646C50.1394 27.8882 50.1394 27.7614 50.1394 27.6932V26.6191H49.3691V25.5271H52.0016V27.5161C52.0016 27.6688 52.0016 27.7614 51.9756 28.0149C51.8489 29.3783 50.6805 29.8512 49.3691 29.8512C48.048 29.8512 46.8894 29.3767 46.7626 28.0149C46.7366 27.7614 46.7366 27.6672 46.7366 27.5161V24.3847C46.7366 24.2661 46.7626 24.0126 46.7626 23.8939C46.9316 22.4981 48.0496 22.0496 49.3691 22.0496C50.6805 22.0496 51.8229 22.4981 51.9756 23.8939C52.0016 24.1133 52.0016 24.3847 52.0016 24.3847V24.6382H50.1394V24.2157C50.1394 24.2157 50.1394 24.0386 50.1134 23.9362C50.0874 23.7672 49.9363 23.3951 49.3691 23.3951C48.8183 23.3951 48.6753 23.7428 48.6249 23.9362C48.5989 24.0386 48.5989 24.1653 48.5989 24.2921V27.6948C48.5989 27.7874 48.5989 27.8898 48.6249 27.9662C48.6249 28.1612 48.8199 28.5073 49.3447 28.5073L49.3431 28.5057Z" fill="white"/>
</g>
<defs>
<clipPath id="clip0_33_90">
<rect width="52" height="52" rx="15" fill="white"/>
</clipPath>
</defs>
</svg>
