<svg width="60" height="60" viewBox="0 0 60 60" fill="none" xmlns="http://www.w3.org/2000/svg">
<path d="M22.2166 53.3334C24.2876 53.3334 25.9666 51.6544 25.9666 49.5834C25.9666 47.5123 24.2876 45.8334 22.2166 45.8334C20.1455 45.8334 18.4666 47.5123 18.4666 49.5834C18.4666 51.6544 20.1455 53.3334 22.2166 53.3334Z" fill="white"/>
<path d="M45 53.3334C47.0711 53.3334 48.75 51.6544 48.75 49.5834C48.75 47.5123 47.0711 45.8334 45 45.8334C42.9289 45.8334 41.25 47.5123 41.25 49.5834C41.25 51.6544 42.9289 53.3334 45 53.3334Z" fill="white"/>
<path d="M55.1334 8.95002C54.9783 8.75883 54.7828 8.60437 54.5609 8.49775C54.339 8.39112 54.0962 8.33498 53.8501 8.33335H19.1501L20.2334 11.6667H51.6667L47.2167 31.6667H22.2167L14.6001 7.55002C14.5177 7.29412 14.3746 7.06194 14.1831 6.8733C13.9915 6.68466 13.7572 6.54516 13.5001 6.46669L6.66673 4.36669C6.45661 4.30212 6.23584 4.27957 6.01701 4.30033C5.79818 4.32108 5.58558 4.38474 5.39135 4.48765C4.99909 4.69551 4.70546 5.05067 4.57506 5.47502C4.44466 5.89937 4.48818 6.35813 4.69603 6.7504C4.90388 7.14266 5.25905 7.43629 5.6834 7.56669L11.6667 9.40002L19.3167 33.5667L16.5834 35.8L16.3667 36.0167C15.6906 36.7958 15.3074 37.7864 15.2831 38.8177C15.2587 39.849 15.5948 40.8565 16.2334 41.6667C16.6877 42.2191 17.2649 42.6576 17.919 42.947C18.573 43.2364 19.2857 43.3687 20.0001 43.3334H47.8167C48.2588 43.3334 48.6827 43.1578 48.9952 42.8452C49.3078 42.5326 49.4834 42.1087 49.4834 41.6667C49.4834 41.2247 49.3078 40.8007 48.9952 40.4882C48.6827 40.1756 48.2588 40 47.8167 40H19.7334C19.5415 39.9935 19.3545 39.9375 19.1905 39.8376C19.0265 39.7377 18.891 39.5972 18.7972 39.4296C18.7034 39.2621 18.6544 39.0731 18.6549 38.8811C18.6554 38.6891 18.7054 38.5004 18.8001 38.3334L22.8167 35H48.5501C48.9353 35.0094 49.312 34.885 49.6158 34.648C49.9197 34.411 50.1321 34.076 50.2167 33.7L55.5001 10.3667C55.5507 10.1182 55.5441 9.86146 55.4805 9.61596C55.417 9.37046 55.2983 9.1427 55.1334 8.95002V8.95002Z" fill="white"/>
</svg>
