<svg width="50" height="33" viewBox="0 0 50 33" fill="none" xmlns="http://www.w3.org/2000/svg">
<path d="M41.5849 32.9985C41.4083 32.9972 41.2394 32.9273 41.1145 32.8037C40.9897 32.6801 40.919 32.5128 40.9178 32.338V0.66064C40.919 0.485842 40.9897 0.318548 41.1145 0.194944C41.2394 0.0713405 41.4083 0.00136302 41.5849 0.000147697H49.3157C49.4046 -0.00170074 49.493 0.013995 49.5758 0.046321C49.6585 0.078647 49.7339 0.126956 49.7976 0.188432C49.8613 0.249908 49.912 0.323322 49.9468 0.404394C49.9815 0.485465 49.9996 0.572573 50 0.66064V32.338C50 32.7092 49.6906 33.0062 49.3157 32.9985H41.5849ZM29.5879 32.9987C28.9472 32.9985 28.0029 32.9787 28.0029 32.338V32.338V12.8898C28.0219 12.2834 27.9169 11.6795 27.6942 11.1143C27.4714 10.5491 27.1356 10.0343 26.7068 9.6009C26.2781 9.16746 25.7652 8.8243 25.1991 8.59204C24.633 8.35978 24.0254 8.24321 23.4126 8.24934H8.96038V8.24934C8.25568 8.24934 8.33385 9.22914 8.33385 9.93384V32.338V32.338C8.33385 32.9977 7.37575 32.9985 6.716 32.9985H0.684332C0.595397 33.0003 0.50698 32.9846 0.424235 32.9523C0.341489 32.92 0.266071 32.8716 0.202376 32.8102C0.138681 32.7487 0.0879832 32.6753 0.053238 32.5942C0.0184927 32.5131 0.000395111 32.426 0 32.338V0.66064C0 0.289403 0.309356 -0.0075864 0.684332 0.000147697H27.4811C29.8309 0.0176573 32.0789 0.952327 33.7367 2.60114C35.3945 4.24995 36.3283 6.47975 36.3352 8.80619L36.3509 32.3395C36.3511 32.4263 36.3339 32.5123 36.3005 32.5925C36.267 32.6727 36.2179 32.7456 36.1559 32.807C36.0939 32.8684 36.0203 32.917 35.9393 32.9501C35.8582 32.9833 35.7714 33.0002 35.6837 33L29.5879 32.9987ZM14.2507 32.9985C14.0845 32.9985 13.9252 32.9331 13.8077 32.8168C13.6902 32.7005 13.6241 32.5427 13.6241 32.3782V13.8163C13.6241 13.4776 13.9085 13.1961 14.2507 13.1961H22.1033C22.4455 13.2115 22.7048 13.4869 22.7048 13.8163V32.3782C22.7057 32.4592 22.6903 32.5396 22.6596 32.6147C22.6289 32.6898 22.5834 32.7582 22.5259 32.8159C22.4684 32.8735 22.3999 32.9193 22.3245 32.9507C22.249 32.982 22.168 32.9983 22.0861 32.9985H14.2507Z" fill="white"/>
</svg>
